<svg xmlns="http://www.w3.org/2000/svg" version="1.1" xmlns:xlink="http://www.w3.org/1999/xlink" xmlns:svgjs="http://svgjs.dev/svgjs" width="1000" height="750" viewBox="0 0 1000 750"><rect width="1000" height="750" fill="#f5ff00"></rect><g transform="matrix(0.5845845845845846,0,0,0.5845845845845846,207.58158741832204,82.87400583090377)"><svg viewBox="0 0 343 343" data-background-color="#f5ff00" preserveAspectRatio="xMidYMid meet" height="999" width="1000" xmlns="http://www.w3.org/2000/svg" xmlns:xlink="http://www.w3.org/1999/xlink"><g id="tight-bounds" transform="matrix(1,0,0,1,0.07400000000001228,0.07400000000001228)"><svg viewBox="0 0 342.8515585177538 342.8515585177538" height="342.8515585177538" width="342.8515585177538"><g><svg></svg></g><g><svg viewBox="0 0 342.8515585177538 342.8515585177538" height="342.8515585177538" width="342.8515585177538"><g><path d="M0 171.426c0-94.676 76.75-171.426 171.426-171.426 94.676 0 171.426 76.75 171.426 171.426 0 94.676-76.75 171.426-171.426 171.426-94.676 0-171.426-76.75-171.426-171.426zM171.426 330.061c87.612 0 158.635-71.023 158.635-158.635 0-87.612-71.023-158.635-158.635-158.636-87.612 0-158.635 71.023-158.636 158.636 0 87.612 71.023 158.635 158.636 158.635z" data-fill-palette-color="tertiary" fill="#000000" stroke="transparent"></path><ellipse rx="164.56874808852183" ry="164.56874808852183" cx="171.4257792588769" cy="171.4257792588769" fill="#000000" stroke="transparent" stroke-width="0" fill-opacity="1" data-fill-palette-color="tertiary"></ellipse></g><g transform="matrix(1,0,0,1,64.84655864529836,100.51039842508384)"><svg viewBox="0 0 213.15844122715708 141.83076166758613" height="141.83076166758613" width="213.15844122715708"><g><svg viewBox="0 0 213.15844122715708 141.83076166758613" height="141.83076166758613" width="213.15844122715708"><g><svg viewBox="0 0 213.15844122715708 141.83076166758613" height="141.83076166758613" width="213.15844122715708"><g id="textblocktransform"><svg viewBox="0 0 213.15844122715708 141.83076166758613" height="141.83076166758613" width="213.15844122715708" id="textblock"><g><svg viewBox="0 0 213.15844122715708 141.83076166758613" height="141.83076166758613" width="213.15844122715708"><g transform="matrix(1,0,0,1,0,0)"><svg width="213.15844122715708" viewBox="0.3500000238418579 -34.400001525878906 51.70000076293945 34.400001525878906" height="141.83076166758613" data-palette-color="#f5ff00"><path d="M20.45-34.4L25.05-34.4 15.55 0 10 0 0.35-34.4 5.15-34.4 12.85-4.5 20.45-34.4ZM29.7-34.4L34.35-34.4 34.35 0 29.7 0 29.7-34.4ZM46.3-34.4L51.25-34.4 39.6-18.7 52.05 0 46.7 0 34.55-18.4 46.3-34.4Z" opacity="1" transform="matrix(1,0,0,1,0,0)" fill="#f5ff00" class="undefined-text-0" data-fill-palette-color="quaternary" id="text-0"></path></svg></g></svg></g></svg></g></svg></g><g></g></svg></g></svg></g></svg></g><defs></defs></svg><rect width="342.8515585177538" height="342.8515585177538" fill="none" stroke="none" visibility="hidden"></rect></g></svg></g></svg>